<svg width="32" height="32" viewBox="0 0 32 32" fill="none" xmlns="http://www.w3.org/2000/svg">
<g clip-path="url(#clip0_89_165)">
<path d="M16.0015 0C18.5684 0.00685474 21.0279 0.889699 22.843 2.45577C24.658 4.02184 25.6813 6.14392 25.6892 8.35867V15.2775H24.0053V9.83496H16.842V15.2775H15.1581V9.83496H7.99777V15.2775H6.32593V8.35867C6.33307 6.14551 7.35437 4.0246 9.16701 2.45867C10.9796 0.892748 13.4365 0.00891275 16.0015 0ZM16.842 1.49188V8.37947H24.0053V8.35867C23.9978 6.65464 23.2633 5.01266 21.942 3.7461C20.6208 2.47954 18.8053 1.67709 16.842 1.49188ZM15.1581 8.37947V1.49188C13.1948 1.67658 11.3793 2.47897 10.0584 3.74571C8.73752 5.01245 8.00391 6.65472 7.99777 8.35867V8.37947H15.1581Z" fill="#76BD22"/>
<path fill-rule="evenodd" clip-rule="evenodd" d="M0.738052 14.4172H31.265C31.4408 14.4185 31.6089 14.4796 31.7329 14.5871C31.857 14.6946 31.9269 14.8399 31.9277 14.9916V15.5114C31.9269 15.6631 31.857 15.8084 31.7329 15.9159C31.6089 16.0234 31.4408 16.0844 31.265 16.0858H0.738052C0.64972 16.0854 0.562341 16.07 0.48096 16.0404C0.39958 16.0107 0.32581 15.9675 0.263913 15.9131C0.202015 15.8587 0.153215 15.7943 0.120331 15.7236C0.0874478 15.6529 0.0711322 15.5772 0.0723268 15.501V14.9812C0.0731192 14.829 0.143512 14.6833 0.268189 14.5758C0.392865 14.4682 0.561735 14.4075 0.738052 14.4068V14.4172Z" fill="#76BD22" stroke="#76BD22" stroke-width="0.48" stroke-miterlimit="22.93"/>
<path fill-rule="evenodd" clip-rule="evenodd" d="M2.47308 26.8408H29.566C29.634 26.8412 29.7013 26.8531 29.764 26.8758C29.8267 26.8986 29.8836 26.9318 29.9315 26.9736C29.9793 27.0153 30.0171 27.0648 30.0428 27.1192C30.0685 27.1736 30.0815 27.2318 30.0811 27.2905V29.3931C30.0787 30.068 29.7669 30.7147 29.2138 31.1919C28.6607 31.6692 27.9112 31.9382 27.129 31.9402H4.90704C4.12483 31.9382 3.37534 31.6692 2.82223 31.1919C2.26913 30.7147 1.95734 30.068 1.95496 29.3931V27.2905C1.95575 27.1721 2.01059 27.0588 2.10758 26.9751C2.20458 26.8914 2.33591 26.8441 2.47308 26.8434V26.8408Z" fill="#76BD22" stroke="#76BD22" stroke-width="0.48" stroke-miterlimit="22.93"/>
<path fill-rule="evenodd" clip-rule="evenodd" d="M4.1781 16.0754H5.69029V26.9916H4.1781V16.0754Z" fill="#76BD22" stroke="#76BD22" stroke-width="0.48" stroke-miterlimit="22.93"/>
<path fill-rule="evenodd" clip-rule="evenodd" d="M9.71179 16.0754H11.224V26.9916H9.71179V16.0754Z" fill="#76BD22" stroke="#76BD22" stroke-width="0.48" stroke-miterlimit="22.93"/>
<path fill-rule="evenodd" clip-rule="evenodd" d="M15.2484 16.0754H16.7576V26.9916H15.2484V16.0754Z" fill="#76BD22" stroke="#76BD22" stroke-width="0.48" stroke-miterlimit="22.93"/>
<path fill-rule="evenodd" clip-rule="evenodd" d="M20.7821 16.0754H22.2943V26.9916H20.7821V16.0754Z" fill="#76BD22" stroke="#76BD22" stroke-width="0.48" stroke-miterlimit="22.93"/>
<path fill-rule="evenodd" clip-rule="evenodd" d="M26.3157 16.0754H27.8279V26.9916H26.3157V16.0754Z" fill="#76BD22" stroke="#76BD22" stroke-width="0.48" stroke-miterlimit="22.93"/>
</g>
<defs>
<clipPath id="clip0_89_165">
<rect width="32" height="32" fill="white"/>
</clipPath>
</defs>
</svg>
