<svg width="33" height="32" viewBox="0 0 33 32" fill="none" xmlns="http://www.w3.org/2000/svg">
<g clip-path="url(#clip0_111_61)">
<path d="M12.013 22.6667C12.013 23.4 11.413 24 10.6797 24C9.94635 24 9.34635 23.4 9.34635 22.6667C9.34635 21.9333 9.94635 21.3333 10.6797 21.3333C11.413 21.3333 12.013 21.9333 12.013 22.6667ZM16.013 21.3333C15.2797 21.3333 14.6797 21.9333 14.6797 22.6667C14.6797 23.4 15.2797 24 16.013 24C16.7464 24 17.3464 23.4 17.3464 22.6667C17.3464 21.9333 16.7464 21.3333 16.013 21.3333ZM21.3464 21.3333C20.613 21.3333 20.013 21.9333 20.013 22.6667C20.013 23.4 20.613 24 21.3464 24C22.0797 24 22.6797 23.4 22.6797 22.6667C22.6797 21.9333 22.0797 21.3333 21.3464 21.3333ZM25.3464 16V18.6667H6.67969V16C6.67969 11.2933 10.1597 7.42667 14.6797 6.77333V4H17.3464V6.77333C21.8664 7.42667 25.3464 11.2933 25.3464 16ZM22.6797 16C22.6797 12.32 19.693 9.33333 16.013 9.33333C12.333 9.33333 9.34635 12.32 9.34635 16H22.6797ZM10.6797 25.3333C9.94635 25.3333 9.34635 25.9333 9.34635 26.6667C9.34635 27.4 9.94635 28 10.6797 28C11.413 28 12.013 27.4 12.013 26.6667C12.013 25.9333 11.413 25.3333 10.6797 25.3333ZM16.013 25.3333C15.2797 25.3333 14.6797 25.9333 14.6797 26.6667C14.6797 27.4 15.2797 28 16.013 28C16.7464 28 17.3464 27.4 17.3464 26.6667C17.3464 25.9333 16.7464 25.3333 16.013 25.3333ZM21.3464 25.3333C20.613 25.3333 20.013 25.9333 20.013 26.6667C20.013 27.4 20.613 28 21.3464 28C22.0797 28 22.6797 27.4 22.6797 26.6667C22.6797 25.9333 22.0797 25.3333 21.3464 25.3333Z" fill="#76BC1A"/>
</g>
<defs>
<clipPath id="clip0_111_61">
<rect width="32" height="32" fill="white" transform="translate(0.0117188)"/>
</clipPath>
</defs>
</svg>
