<svg width="32" height="32" viewBox="0 0 32 32" fill="none" xmlns="http://www.w3.org/2000/svg">
<g clip-path="url(#clip0_111_80)">
<path d="M28.0013 14.3746V10.668C28.0013 8.46797 26.2013 6.66797 24.0013 6.66797H18.668C17.6413 6.66797 16.708 7.06797 16.0013 7.70797C15.2946 7.06797 14.3613 6.66797 13.3346 6.66797H8.0013C5.8013 6.66797 4.0013 8.46797 4.0013 10.668V14.3746C3.18797 15.108 2.66797 16.1613 2.66797 17.3346V25.3346H5.33464V22.668H26.668V25.3346H29.3346V17.3346C29.3346 16.1613 28.8146 15.108 28.0013 14.3746ZM18.668 9.33464H24.0013C24.7346 9.33464 25.3346 9.93464 25.3346 10.668V13.3346H17.3346V10.668C17.3346 9.93464 17.9346 9.33464 18.668 9.33464ZM6.66797 10.668C6.66797 9.93464 7.26797 9.33464 8.0013 9.33464H13.3346C14.068 9.33464 14.668 9.93464 14.668 10.668V13.3346H6.66797V10.668ZM5.33464 20.0013V17.3346C5.33464 16.6013 5.93464 16.0013 6.66797 16.0013H25.3346C26.068 16.0013 26.668 16.6013 26.668 17.3346V20.0013H5.33464Z" fill="#76BC1A"/>
</g>
<defs>
<clipPath id="clip0_111_80">
<rect width="32" height="32" fill="white"/>
</clipPath>
</defs>
</svg>
