<svg width="32" height="32" viewBox="0 0 32 32" fill="none" xmlns="http://www.w3.org/2000/svg">
<g clip-path="url(#clip0_89_128)">
<path d="M4.3275 3.69255e-06H27.6719C28.4013 3.69255e-06 29.065 0.334686 29.5444 0.871719C30.0244 1.40945 30.3231 2.15374 30.3231 2.97014V16.6137C30.5431 16.7817 30.7469 16.9687 30.9312 17.1745L30.9725 17.2257C31.6075 17.9587 32 18.9096 32 20.0439V31.2123C32 31.6471 31.685 32 31.2969 32H30.0631C29.7325 32 29.455 31.7437 29.38 31.3986C28.9356 29.9779 28.4975 29.1594 27.915 28.7246C27.3206 28.2821 26.4875 28.1715 25.2756 28.1729L5.67938 28.2051C4.82125 28.1834 4.26938 28.4543 3.87625 28.9451C3.42688 29.506 3.11562 30.3861 2.7975 31.4588C2.70125 31.7879 2.42687 31.9965 2.13375 31.9965L0.703125 32C0.315 32 0 31.6471 0 31.2123V19.6714C0 18.6092 0.374375 17.727 0.975 17.0534L1.02125 17.0065C1.21875 16.7922 1.44 16.6011 1.67938 16.4338L1.67625 2.94073C1.67625 2.12503 1.97563 1.38985 2.45688 0.857715C2.95526 0.306987 3.62746 -0.00123054 4.3275 3.69255e-06ZM1.44625 22.9867L1.40562 22.9853V30.4253H1.63437C1.95687 29.4094 2.31062 28.5524 2.8325 27.8998C3.50125 27.0645 4.38563 26.6045 5.70625 26.6374L25.2756 26.6045C26.7606 26.6031 27.8175 26.7655 28.6887 27.4153C29.4725 27.9999 30.0394 28.929 30.5519 30.4253H30.5944V22.9853L30.5531 22.9867H1.44625ZM1.40562 21.4134L1.44625 21.412H30.5531L30.5944 21.4134V20.0439C30.5944 19.3535 30.3562 18.7737 29.9719 18.3249L29.9369 18.2885C29.6294 17.944 29.2356 17.6731 28.7925 17.484C27.9937 17.2929 27.2138 17.1185 26.45 16.9603C25.5881 16.8098 24.7525 16.6753 23.9387 16.557C23.8384 16.5769 23.7353 16.5718 23.6369 16.5423L23.3219 16.4695C20.6269 16.0998 18.1556 15.9121 15.7087 15.91C14.2081 15.9086 12.7113 15.9772 11.1713 16.1159C8.45938 16.4191 5.64062 16.9624 2.53063 17.7354C2.50125 17.7424 2.47125 17.748 2.4425 17.7508C2.28125 17.8621 2.1325 17.9881 2.00187 18.1282L1.96938 18.1674C1.62188 18.556 1.40562 19.0636 1.40562 19.6714V21.4134ZM3.44313 15.6909C4.84938 15.4101 6.18687 15.1741 7.48 14.9809L7.47813 11.8287C7.47813 10.7715 7.86438 9.80873 8.48563 9.11345L8.53187 9.06654C9.15 8.39788 9.98875 7.98548 10.9094 7.98548H21.0906C22.035 7.98548 22.8931 8.41818 23.5138 9.11415C24.135 9.81012 24.5219 10.7722 24.5219 11.8287V15.0047C25.2075 15.1223 25.9044 15.2533 26.6144 15.3989C27.1394 15.4906 27.6731 15.588 28.2181 15.6909C28.4562 15.7364 28.69 15.7973 28.9175 15.8736V2.97014C28.9175 2.58854 28.7762 2.23916 28.5506 1.98569C28.325 1.73293 28.0131 1.57469 27.6719 1.57469H4.3275C3.97937 1.57469 3.66437 1.72803 3.43937 1.97729C3.21875 2.22095 3.0825 2.56124 3.0825 2.94073V15.7777C3.20125 15.7448 3.32188 15.7154 3.44313 15.6909ZM16.3662 14.245C18.2375 14.2548 20.0656 14.3697 21.6869 14.5923C22.1587 14.6476 22.6356 14.7113 23.1156 14.7814V11.8287C23.1156 11.207 22.8869 10.6391 22.5194 10.2274C22.1525 9.81643 21.6463 9.56016 21.0906 9.56016H10.9094C10.3688 9.56016 9.87562 9.80032 9.51125 10.1889L9.47937 10.2274C9.1125 10.6384 8.88437 11.2063 8.88437 11.8287V14.78C11.1812 14.4124 13.8144 14.231 16.3662 14.245Z" fill="#76BD22"/>
</g>
<defs>
<clipPath id="clip0_89_128">
<rect width="32" height="32" fill="white"/>
</clipPath>
</defs>
</svg>
