<svg width="30" height="16" viewBox="0 0 30 16" fill="none" xmlns="http://www.w3.org/2000/svg">
<path d="M9.80469 6.17578L8.18359 11H7.04688L9.17188 5.3125H9.89844L9.80469 6.17578ZM11.1602 11L9.53125 6.17578L9.43359 5.3125H10.1641L12.3008 11H11.1602ZM11.0859 8.88672V9.73438H8.03516V8.88672H11.0859ZM16.6562 10.1562V11H13.6328V10.1562H16.6562ZM13.9609 5.3125V11H12.8867V5.3125H13.9609ZM16.2617 7.66016V8.48438H13.6328V7.66016H16.2617ZM16.6445 5.3125V6.16016H13.6328V5.3125H16.6445ZM19.1016 11H17.875L17.8828 10.1562H19.1016C19.4323 10.1562 19.7096 10.0833 19.9336 9.9375C20.1576 9.78906 20.3268 9.57682 20.4414 9.30078C20.556 9.02214 20.6133 8.6888 20.6133 8.30078V8.00781C20.6133 7.70833 20.5807 7.44401 20.5156 7.21484C20.4505 6.98568 20.3542 6.79297 20.2266 6.63672C20.1016 6.48047 19.9466 6.36198 19.7617 6.28125C19.5768 6.20052 19.3646 6.16016 19.125 6.16016H17.8516V5.3125H19.125C19.5052 5.3125 19.8516 5.3763 20.1641 5.50391C20.4792 5.63151 20.7513 5.8151 20.9805 6.05469C21.2122 6.29167 21.3893 6.57552 21.5117 6.90625C21.6367 7.23698 21.6992 7.60677 21.6992 8.01562V8.30078C21.6992 8.70703 21.6367 9.07682 21.5117 9.41016C21.3893 9.74089 21.2122 10.0247 20.9805 10.2617C20.7513 10.4987 20.4779 10.681 20.1602 10.8086C19.8424 10.9362 19.4896 11 19.1016 11ZM18.4766 5.3125V11H17.4023V5.3125H18.4766Z" fill="#76BC1A"/>
<rect x="0.75" y="0.75" width="28.5" height="14.5" rx="1.25" stroke="#76BC1A" stroke-width="1.5"/>
</svg>
