<svg width="33" height="32" viewBox="0 0 33 32" fill="none" xmlns="http://www.w3.org/2000/svg">
<g clip-path="url(#clip0_111_69)">
<path d="M28.5597 15.2146L16.7864 3.4413C16.293 2.94797 15.613 2.66797 14.9064 2.66797H5.34635C3.87969 2.66797 2.67969 3.86797 2.67969 5.33464V14.8946C2.67969 15.6013 2.95969 16.2813 3.46635 16.7746L15.2397 28.548C16.2797 29.588 17.973 29.588 19.013 28.548L28.573 18.988C29.613 17.948 29.613 16.268 28.5597 15.2146ZM17.1197 26.668L5.34635 14.8946V5.33464H14.9064L26.6797 17.108L17.1197 26.668Z" fill="#76BC1A"/>
<path d="M8.67969 10.668C9.78426 10.668 10.6797 9.77254 10.6797 8.66797C10.6797 7.5634 9.78426 6.66797 8.67969 6.66797C7.57512 6.66797 6.67969 7.5634 6.67969 8.66797C6.67969 9.77254 7.57512 10.668 8.67969 10.668Z" fill="#76BC1A"/>
</g>
<defs>
<clipPath id="clip0_111_69">
<rect width="32" height="32" fill="white" transform="translate(0.0117188)"/>
</clipPath>
</defs>
</svg>
