<svg width="44" height="32" viewBox="0 0 44 32" fill="none" xmlns="http://www.w3.org/2000/svg">
<g clip-path="url(#clip0_89_95)">
<path d="M5.01331 28.7892C5.02173 28.6247 4.99876 28.46 4.94666 28.3114C4.89455 28.1627 4.8151 28.0351 4.71611 27.9412C4.32223 27.5049 3.89612 27.0245 3.89612 25.3235C3.89612 24.3824 3.94625 23.549 3.99638 22.7647C4.1038 21.0392 4.19332 19.5735 3.6025 17.7304C3.37409 17.7616 3.14439 17.7715 2.915 17.7598C2.17462 17.7435 1.46457 17.3543 0.920536 16.6667C0.457718 16.0567 0.153392 15.2562 0.054 14.3873C0.00737405 14.0332 -0.0106381 13.6732 0.000289051 13.3137C0.0135726 12.3875 0.25737 11.4951 0.69137 10.7843C1.16531 10.051 1.80398 9.5543 2.5068 9.37255C2.88008 9.26876 3.26187 9.23414 3.64189 9.26961V7.84314C3.64942 5.76619 4.25544 3.77724 5.32824 2.30859C6.40104 0.839946 7.85391 0.0103076 9.37106 0L34.4362 0C35.9533 0.0103076 37.4062 0.839946 38.479 2.30859C39.5518 3.77724 40.1578 5.76619 40.1653 7.84314V9.26471C40.3424 9.23711 40.5206 9.22402 40.6989 9.22549C41.4869 9.19348 42.2599 9.52494 42.8938 10.1667C43.2266 10.5173 43.4971 10.9664 43.6852 11.4804C43.9875 12.3415 44.0719 13.3159 43.9251 14.25C43.8309 14.8867 43.6406 15.4894 43.3665 16.0196C43.079 16.5695 42.698 17.0154 42.2565 17.3186C41.6581 17.7132 40.9853 17.845 40.33 17.6961C39.7356 19.5441 39.8252 21.0098 39.9326 22.7402C39.9827 23.5245 40.0328 24.3578 40.0328 25.299C40.0328 27 39.6067 27.4804 39.2129 27.9167C39.1084 28.0104 39.0244 28.1408 38.9696 28.2944C38.9148 28.4479 38.8912 28.6189 38.9013 28.7892C38.9013 28.881 38.8881 28.972 38.8623 29.0567C38.8365 29.1415 38.7987 29.2185 38.7511 29.2832C38.7035 29.3479 38.6471 29.399 38.585 29.4337C38.5229 29.4684 38.4564 29.4859 38.3893 29.4853H36.5595C36.5595 29.4853 36.5595 29.5245 36.5595 29.5392V31.2451C36.5595 31.4453 36.5014 31.6373 36.398 31.7789C36.2946 31.9205 36.1543 32 36.0081 32H32.5634C32.4178 31.9987 32.2785 31.9186 32.1758 31.7772C32.0732 31.6357 32.0156 31.4445 32.0156 31.2451V29.4853H11.985V31.2451C11.985 31.4445 11.9274 31.6357 11.8247 31.7772C11.7221 31.9186 11.5828 31.9987 11.4371 32H7.98173C7.83611 31.9987 7.69677 31.9186 7.59413 31.7772C7.49148 31.6357 7.43388 31.4445 7.43388 31.2451V29.4853H5.53968C5.47141 29.4886 5.40336 29.473 5.33959 29.4395C5.27582 29.406 5.21764 29.3553 5.16851 29.2903C5.11938 29.2253 5.08032 29.1475 5.05365 29.0614C5.02699 28.9753 5.01327 28.8827 5.01331 28.7892ZM36.1657 16.2843C36.1711 16.3462 36.1711 16.4087 36.1657 16.4706V20.951C36.1657 21.043 36.1524 21.1342 36.1267 21.2192C36.1009 21.3043 36.0632 21.3816 36.0157 21.4466C35.9681 21.5117 35.9117 21.5634 35.8496 21.5986C35.7874 21.6338 35.7209 21.652 35.6536 21.652H8.35055C8.21475 21.652 8.08451 21.5781 7.98848 21.4466C7.89245 21.3152 7.8385 21.1369 7.8385 20.951V16.5833C7.65875 15.8889 7.45197 15.2082 7.21904 14.5441C7.01468 13.9653 6.77512 13.4111 6.50289 12.8873C5.99542 11.9167 5.26576 11.2059 4.42965 10.8676C3.87283 10.6345 3.28287 10.5907 2.7109 10.7402C2.23125 10.8601 1.79423 11.1946 1.46839 11.6912C1.18421 12.1659 1.02638 12.7588 1.0208 13.3725C1.01909 13.6326 1.03709 13.8921 1.07451 14.1471C1.13946 14.7167 1.33657 15.2426 1.63668 15.6471C2.00507 16.0973 2.48204 16.3452 2.97587 16.3431C3.2626 16.3545 3.54942 16.3249 3.83167 16.2549C3.93902 16.2303 4.04931 16.2531 4.14653 16.3201C4.24376 16.3871 4.32286 16.4947 4.37236 16.6275C5.26754 19.049 5.16012 20.7794 5.03121 22.8529C4.98108 23.6029 4.93453 24.402 4.93453 25.3039C4.93453 26.3431 5.1637 26.6029 5.37854 26.8431C5.70026 27.1324 5.92845 27.58 6.01591 28.0931H37.956C38.0435 27.58 38.2717 27.1324 38.5934 26.8431C38.8082 26.6029 39.0374 26.3529 39.0374 25.3039C39.0374 24.4069 38.9908 23.6078 38.9407 22.8529C38.8154 20.7892 38.708 19.0637 39.5853 16.6618C39.6286 16.5304 39.7001 16.4202 39.7903 16.3458C39.8805 16.2714 39.985 16.2363 40.0901 16.2451H40.2692H40.3336C40.8368 16.4074 41.3653 16.3332 41.8339 16.0343C42.1196 15.8293 42.3652 15.5334 42.5501 15.1716C42.7402 14.8028 42.8719 14.3837 42.9368 13.9412C43.0366 13.3087 42.9812 12.6488 42.7793 12.0637C42.663 11.7381 42.494 11.4531 42.2851 11.2304C41.8295 10.7813 41.2779 10.552 40.7168 10.5784C40.0622 10.5885 39.418 10.8031 38.8333 11.2059C38.3524 11.5326 37.9305 12.0014 37.5979 12.5784C37.2928 13.1275 37.0266 13.7151 36.803 14.3333C36.5695 14.9703 36.3627 15.625 36.1836 16.2941L36.1657 16.2843ZM8.85901 17.1569V20.2353H35.1738V17.1569C30.927 17.2402 26.6696 17.2696 22.4264 17.4265H21.9681L20.8294 17.3873L8.85901 17.1569ZM21.4596 1.42647V1.39706H9.38896C8.14064 1.40222 6.94443 2.0827 6.06106 3.29018C5.17769 4.49766 4.6788 6.13422 4.67314 7.84314V9.5098L4.73043 9.53431C5.78294 9.96153 6.70144 10.8567 7.34078 12.0784C7.64213 12.6655 7.90798 13.2852 8.13571 13.9314C8.33265 14.4902 8.526 15.1029 8.70862 15.7794C12.9554 15.8676 17.22 15.8922 21.4632 16.049C21.4613 16.0131 21.4613 15.9771 21.4632 15.9412V1.42647H21.4596ZM22.4765 1.39706V15.9412C22.4785 15.9771 22.4785 16.0131 22.4765 16.049C26.7197 15.8922 30.9843 15.8676 35.2311 15.7794C35.4213 15.0785 35.64 14.3928 35.8864 13.7255C36.1402 13.0325 36.4437 12.3757 36.7923 11.7647C37.2227 11.0347 37.7656 10.4439 38.3821 10.0343C38.6338 9.86329 38.8948 9.71908 39.1627 9.60294V7.84314C39.1571 6.13422 38.6582 4.49766 37.7748 3.29018C36.8914 2.0827 35.6952 1.40222 34.4469 1.39706H22.4765Z" fill="#76BD22"/>
</g>
<defs>
<clipPath id="clip0_89_95">
<rect width="44" height="32" fill="white"/>
</clipPath>
</defs>
</svg>
