<svg width="32" height="32" viewBox="0 0 32 32" fill="none" xmlns="http://www.w3.org/2000/svg">
<g clip-path="url(#clip0_111_97)">
<path d="M26.6654 10.6662V7.99957C26.6654 5.79957 24.8654 3.99957 22.6654 3.99957H9.33203C7.13203 3.99957 5.33203 5.79957 5.33203 7.99957V10.6662C3.13203 10.6662 1.33203 12.4662 1.33203 14.6662V21.3329C1.33203 23.5329 3.13203 25.3329 5.33203 25.3329V26.6662C5.33203 27.3996 5.93203 27.9996 6.66536 27.9996C7.3987 27.9996 7.9987 27.3996 7.9987 26.6662V25.3329H23.9987V26.6662C23.9987 27.3996 24.5987 27.9996 25.332 27.9996C26.0654 27.9996 26.6654 27.3996 26.6654 26.6662V25.3329C28.8654 25.3329 30.6654 23.5329 30.6654 21.3329V14.6662C30.6654 12.4662 28.8654 10.6662 26.6654 10.6662ZM7.9987 7.99957C7.9987 7.26624 8.5987 6.66624 9.33203 6.66624H22.6654C23.3987 6.66624 23.9987 7.26624 23.9987 7.99957V11.7062C23.1854 12.4396 22.6654 13.4929 22.6654 14.6662V17.3329H9.33203V14.6662C9.33203 13.4929 8.81203 12.4396 7.9987 11.7062V7.99957ZM27.9987 21.3329C27.9987 22.0662 27.3987 22.6662 26.6654 22.6662H5.33203C4.5987 22.6662 3.9987 22.0662 3.9987 21.3329V14.6662C3.9987 13.9329 4.5987 13.3329 5.33203 13.3329C6.06536 13.3329 6.66536 13.9329 6.66536 14.6662V19.9996H25.332V14.6662C25.332 13.9329 25.932 13.3329 26.6654 13.3329C27.3987 13.3329 27.9987 13.9329 27.9987 14.6662V21.3329Z" fill="#76BC1A"/>
</g>
<defs>
<clipPath id="clip0_111_97">
<rect width="32" height="32" fill="white" transform="translate(0 -0.000427246)"/>
</clipPath>
</defs>
</svg>
