<svg width="32" height="32" viewBox="0 0 32 32" fill="none" xmlns="http://www.w3.org/2000/svg">
<g clip-path="url(#clip0_89_147)">
<path d="M0.419305 25.3073L1.82046 23.9062C1.85692 23.8698 1.89599 23.8359 1.93505 23.8021L0.929763 22.7969C0.914137 22.7812 0.901115 22.7656 0.888093 22.75C0.638073 22.4766 0.513063 22.1302 0.513063 21.7865C0.513063 21.4219 0.653699 21.0573 0.932367 20.7786L2.33352 19.3776C2.36998 19.3411 2.40905 19.3073 2.44812 19.2734L1.44283 18.2682C1.16416 17.9896 1.02613 17.6224 1.02613 17.2578C1.02613 16.8932 1.16676 16.5286 1.44283 16.25L2.84398 14.849C3.12265 14.5703 3.48987 14.4323 3.85448 14.4323C4.2217 14.4323 4.58631 14.5703 4.86498 14.849L17.1602 27.1432C17.4389 27.4219 17.5769 27.7891 17.5769 28.1536C17.5769 28.5208 17.4389 28.8854 17.1602 29.1641L15.7591 30.5651C15.7435 30.5807 15.7278 30.5937 15.7122 30.6068C15.4388 30.8568 15.0924 30.9818 14.7486 30.9818C14.384 30.9818 14.0194 30.8411 13.7407 30.5651L12.8891 29.7135C12.8578 29.7526 12.824 29.7917 12.7875 29.8281L11.3863 31.2292C11.3707 31.2448 11.3551 31.2578 11.3395 31.2708C11.0686 31.5182 10.7222 31.6432 10.3758 31.6432C10.0086 31.6432 9.64401 31.5052 9.36795 31.2266L8.2064 30.0651C8.17514 30.1042 8.14129 30.1432 8.10222 30.1797L6.70107 31.5807C6.4224 31.8594 6.05518 31.9974 5.69057 31.9974C5.32595 31.9974 4.95874 31.8594 4.68007 31.5807L0.419305 27.3307C0.140636 27.0521 0 26.6849 0 26.3203C0 25.9531 0.140636 25.5885 0.419305 25.3073ZM17.1498 2.33854L15.7487 3.73958L15.7357 3.7526C15.7148 3.78125 15.7044 3.8151 15.7044 3.84896C15.7044 3.88802 15.72 3.92969 15.7487 3.95833L28.0439 16.2526C28.0726 16.2812 28.1117 16.2969 28.1533 16.2969C28.1924 16.2969 28.2341 16.2812 28.2627 16.2526L29.6639 14.8516L29.6769 14.8385C29.6977 14.8125 29.7081 14.776 29.7081 14.7422C29.7081 14.7005 29.6951 14.6615 29.6665 14.6328L27.8096 12.776L19.3792 4.35156L17.3686 2.34115C17.34 2.3125 17.3009 2.29687 17.2592 2.29687C17.2175 2.29427 17.1785 2.3099 17.1498 2.33854ZM18.6135 12.3203C18.9625 11.9714 19.5302 11.9714 19.8818 12.3203C20.2308 12.6693 20.2308 13.237 19.8818 13.5885L13.7355 19.7292C13.3865 20.0781 12.8188 20.0781 12.4672 19.7292C12.1182 19.3802 12.1182 18.8125 12.4672 18.4609L18.6135 12.3203ZM26.2131 1.32031L24.8119 2.72135C24.7807 2.7526 24.765 2.79167 24.765 2.83073C24.765 2.86458 24.7755 2.89583 24.7963 2.92448L24.8119 2.9401L29.0623 7.1901L29.0753 7.20312C29.1013 7.22396 29.1352 7.23177 29.169 7.23177C29.2081 7.23177 29.2498 7.21615 29.2784 7.1875L30.6796 5.78646C30.7108 5.75521 30.7265 5.71615 30.7265 5.67708C30.7265 5.63802 30.7108 5.59635 30.6822 5.56771L26.4318 1.32031C26.4032 1.29167 26.3641 1.27604 26.3225 1.27604C26.2808 1.27604 26.2417 1.29167 26.2131 1.32031ZM23.9108 1.81771L25.312 0.416667C25.5906 0.138021 25.9578 0 26.3225 0C26.6871 0 27.0543 0.138021 27.333 0.416667L31.5833 4.66667C31.8594 4.94271 32 5.3099 31.9974 5.67448C31.9974 6.04167 31.8594 6.40885 31.5833 6.6849L30.1821 8.08594C30.1457 8.1224 30.1066 8.15625 30.0675 8.1901L31.2291 9.35156C31.5078 9.63021 31.6458 9.9974 31.6458 10.362C31.6458 10.7292 31.5052 11.0937 31.2291 11.3724L29.8279 12.7734C29.7915 12.8099 29.7524 12.8437 29.7134 12.875L30.565 13.7266C30.8437 14.0052 30.9817 14.3698 30.9817 14.7344C30.9817 15.0807 30.8567 15.4271 30.6067 15.6979C30.5936 15.7135 30.5806 15.7292 30.565 15.7448L29.1638 17.1458C28.8852 17.4245 28.5179 17.5625 28.1533 17.5625C27.7861 17.5625 27.4215 17.4219 27.1428 17.1458L14.8476 4.85937C14.5689 4.58073 14.4283 4.21354 14.4283 3.84896C14.4283 3.5026 14.5533 3.15625 14.8033 2.88542C14.8163 2.86979 14.8293 2.85417 14.845 2.83854L16.2461 1.4375C16.5248 1.15885 16.8894 1.02083 17.254 1.02083C17.6212 1.02083 17.9858 1.16146 18.2645 1.4375L19.2698 2.44271C19.301 2.40365 19.3349 2.36458 19.374 2.32812L20.7751 0.927083C21.0538 0.648437 21.421 0.507812 21.7856 0.507812C22.1528 0.507812 22.5175 0.648437 22.7961 0.927083L23.8014 1.93229C23.8405 1.89323 23.8743 1.85417 23.9108 1.81771ZM21.6815 1.83073L20.2803 3.23177C20.2516 3.26042 20.236 3.29948 20.236 3.34115C20.236 3.38021 20.249 3.41927 20.2777 3.44792L20.2803 3.45052L28.7081 11.8776C28.7367 11.9062 28.7758 11.9219 28.8174 11.9219C28.8591 11.9219 28.8982 11.9089 28.9268 11.8802L30.328 10.4792C30.3566 10.4505 30.3723 10.4115 30.3723 10.3698C30.3723 10.3307 30.3566 10.2891 30.328 10.2604L28.1637 8.09635L21.9002 1.83073C21.8716 1.80208 21.8299 1.78646 21.7908 1.78646C21.7492 1.78646 21.7101 1.79948 21.6815 1.83073ZM4.35192 19.3776L12.7797 27.8047L14.6314 29.6562C14.66 29.6849 14.7017 29.6979 14.7408 29.6979C14.7746 29.6979 14.8085 29.6875 14.8371 29.6667L14.8502 29.6536L16.2513 28.2526C16.28 28.224 16.2956 28.1849 16.2956 28.1432C16.2956 28.1042 16.28 28.0625 16.2513 28.0339L3.95866 15.7474C3.93001 15.7187 3.89094 15.7031 3.84927 15.7031C3.81021 15.7031 3.76854 15.7187 3.73989 15.7474L2.33873 17.1484C2.31008 17.1771 2.29706 17.2187 2.29706 17.2578C2.29706 17.2969 2.31269 17.3385 2.34134 17.3672L4.35192 19.3776ZM11.8916 28.7214L11.8786 28.7083L3.4482 20.2786L3.43257 20.263C3.40392 20.2422 3.37267 20.2318 3.33881 20.2318C3.29975 20.2318 3.26068 20.2474 3.22943 20.2786L1.82827 21.6797C1.79963 21.7083 1.7866 21.75 1.7866 21.7891C1.7866 21.8229 1.79702 21.8568 1.81786 21.8854L1.83088 21.8984L3.84146 23.9089L8.0918 28.1589L10.2586 30.3255C10.2899 30.3568 10.329 30.3698 10.368 30.3698C10.4019 30.3698 10.4357 30.3594 10.4644 30.3385L10.4774 30.3255L11.8786 28.9245C11.9072 28.8958 11.9202 28.8542 11.9202 28.8151C11.9202 28.7812 11.9098 28.7474 11.8916 28.7214ZM2.72158 24.8099L1.32042 26.2109C1.29177 26.2396 1.27615 26.2786 1.27615 26.3203C1.27615 26.362 1.29177 26.401 1.32042 26.4297L5.57077 30.6797C5.59941 30.7083 5.63848 30.724 5.68015 30.724C5.71921 30.724 5.76089 30.7083 5.78953 30.6797L7.19069 29.2786C7.21934 29.25 7.23496 29.2109 7.23496 29.1693C7.23496 29.1276 7.21934 29.0885 7.19069 29.0599L2.93774 24.8099L2.93513 24.8073C2.90649 24.7786 2.86742 24.7656 2.82835 24.7656C2.78929 24.7656 2.75022 24.7812 2.72158 24.8099Z" fill="#76BD22"/>
</g>
<defs>
<clipPath id="clip0_89_147">
<rect width="32" height="32" fill="white"/>
</clipPath>
</defs>
</svg>
