<svg width="32" height="32" viewBox="0 0 32 32" fill="none" xmlns="http://www.w3.org/2000/svg">
<g clip-path="url(#clip0_89_137)">
<path fill-rule="evenodd" clip-rule="evenodd" d="M16 0C24.8359 0 32 7.16406 32 16C32 24.8359 24.8359 32 16 32C7.16406 32 0 24.8359 0 16C0 7.16406 7.16406 0 16 0ZM11.4349 10.1276H18.0339C19.4714 10.1276 20.5469 10.4688 21.263 11.1536C21.9766 11.8385 22.3359 12.8125 22.3359 14.0755C22.3359 15.3724 21.9453 16.388 21.1641 17.1172C20.3828 17.849 19.1901 18.2135 17.5911 18.2135H15.4167V22.9661H11.4349V10.1276ZM15.4167 15.6146H16.3932C17.1641 15.6146 17.7057 15.4792 18.0156 15.2135C18.3255 14.9479 18.4818 14.6068 18.4818 14.1927C18.4818 13.7891 18.3464 13.4479 18.0755 13.1667C17.8073 12.8854 17.2969 12.7448 16.5521 12.7448H15.4167V15.6146ZM16 3.625C22.8333 3.625 28.375 9.16406 28.375 16C28.375 22.8359 22.8359 28.375 16 28.375C9.16667 28.375 3.625 22.8359 3.625 16C3.625 9.16406 9.16667 3.625 16 3.625ZM16 1.40885C24.0573 1.40885 30.5911 7.9401 30.5911 16C30.5911 24.0599 24.0599 30.5911 16 30.5911C7.9401 30.5911 1.40885 24.0573 1.40885 16C1.40885 7.94271 7.94271 1.40885 16 1.40885Z" fill="#76BD22"/>
</g>
<defs>
<clipPath id="clip0_89_137">
<rect width="32" height="32" fill="#76BD22"/>
</clipPath>
</defs>
</svg>
