<svg width="32" height="32" viewBox="0 0 32 32" fill="none" xmlns="http://www.w3.org/2000/svg">
<g clip-path="url(#clip0_89_152)">
<path d="M4.66667 18C3.95942 18 3.28115 17.7191 2.78105 17.219C2.28095 16.7189 2 16.0406 2 15.3333V11.3333C2 10.6261 2.28095 9.94782 2.78105 9.44772C3.28115 8.94762 3.95942 8.66667 4.66667 8.66667C5.37391 8.66667 6.05219 8.94762 6.55229 9.44772C7.05238 9.94782 7.33333 10.6261 7.33333 11.3333V15.3333C7.33333 16.0406 7.05238 16.7189 6.55229 17.219C6.05219 17.7191 5.37391 18 4.66667 18ZM14.6667 9.33334V5.33334C14.6667 4.62609 14.3857 3.94782 13.8856 3.44772C13.3855 2.94762 12.7072 2.66667 12 2.66667C11.2928 2.66667 10.6145 2.94762 10.1144 3.44772C9.61429 3.94782 9.33333 4.62609 9.33333 5.33334V9.33334C9.33333 10.0406 9.61429 10.7189 10.1144 11.219C10.6145 11.7191 11.2928 12 12 12C12.7072 12 13.3855 11.7191 13.8856 11.219C14.3857 10.7189 14.6667 10.0406 14.6667 9.33334ZM27.3333 18C28.0406 18 28.7189 17.7191 29.219 17.219C29.719 16.7189 30 16.0406 30 15.3333V11.3333C30 10.6261 29.719 9.94782 29.219 9.44772C28.7189 8.94762 28.0406 8.66667 27.3333 8.66667C26.6261 8.66667 25.9478 8.94762 25.4477 9.44772C24.9476 9.94782 24.6667 10.6261 24.6667 11.3333V15.3333C24.6667 16.0406 24.9476 16.7189 25.4477 17.219C25.9478 17.7191 26.6261 18 27.3333 18ZM20 12C20.7072 12 21.3855 11.7191 21.8856 11.219C22.3857 10.7189 22.6667 10.0406 22.6667 9.33334V5.33334C22.6667 4.62609 22.3857 3.94782 21.8856 3.44772C21.3855 2.94762 20.7072 2.66667 20 2.66667C19.2928 2.66667 18.6145 2.94762 18.1144 3.44772C17.6143 3.94782 17.3333 4.62609 17.3333 5.33334V9.33334C17.3333 10.0406 17.6143 10.7189 18.1144 11.219C18.6145 11.7191 19.2928 12 20 12ZM9.4 29.2667C9.4 29.2667 14 28.6 15.9333 28.6C17.8667 28.6 23.1333 29.2667 23.1333 29.2667C26.8 29.2667 28.6 25.0667 26.0667 22.6667L18.8 14.5333C17.9976 13.8301 16.967 13.4424 15.9 13.4424C14.833 13.4424 13.8024 13.8301 13 14.5333L5.8 22.6667C3.2 25.0667 5.73333 29.2667 9.4 29.2667Z" fill="#76BD22"/>
</g>
<defs>
<clipPath id="clip0_89_152">
<rect width="32" height="32" fill="#76BD22"/>
</clipPath>
</defs>
</svg>
