<svg width="24" height="24" viewBox="0 0 24 24" fill="none" xmlns="http://www.w3.org/2000/svg">
<rect width="24" height="24" fill="white"/>
<path d="M5.15466 5.67493V0.645755V0.102164C5.15466 0.046263 5.19764 0 5.24957 0H5.75458H15.6022C15.6183 0 15.6326 0.00385525 15.6452 0.0115658L15.9908 0.165776C16.0051 0.171559 16.0159 0.181197 16.0266 0.192763L18.3421 2.65241L18.4926 2.81241C18.5105 2.83168 18.5212 2.85867 18.5212 2.88566V3.11312V5.67879C18.5212 5.73469 18.4782 5.78095 18.4263 5.78095H17.4217C17.3697 5.78095 17.3267 5.73469 17.3267 5.67879V4.35258H15.1688H14.6638C14.6119 4.35258 14.5689 4.30632 14.5689 4.25042C14.5689 4.24656 14.5689 4.24463 14.5689 4.24078V3.70683V1.28958H6.35271V5.67493C6.35271 5.73083 6.30973 5.7771 6.25779 5.7771H5.24778C5.19764 5.7771 5.15466 5.73083 5.15466 5.67493ZM6.54432 13.0789H17.4628C17.47 13.0789 17.4772 13.0789 17.4843 13.0809C17.633 13.0847 17.7762 13.1175 17.907 13.1753C18.0484 13.2389 18.1774 13.3315 18.2848 13.4471C18.3905 13.5609 18.4764 13.6996 18.5355 13.8519C18.5893 13.9926 18.6197 14.1449 18.6233 14.3049C18.6251 14.3126 18.6251 14.3203 18.6251 14.328V16.1092H20.9818C20.9889 16.1092 20.9943 16.1092 21.0015 16.1111C21.1035 16.1092 21.2038 16.0841 21.2952 16.0436C21.3972 15.9974 21.4886 15.9299 21.5656 15.847C21.6426 15.7641 21.7053 15.6658 21.7482 15.5559C21.7858 15.4576 21.8091 15.3497 21.8109 15.2379C21.8091 15.2321 21.8091 15.2244 21.8091 15.2186V8.39481C21.8091 8.3871 21.8091 8.38132 21.8109 8.37361C21.8091 8.26373 21.7858 8.15579 21.7482 8.05748C21.7053 7.94953 21.6426 7.8493 21.5656 7.76641C21.4886 7.68352 21.3972 7.61605 21.2952 7.56979C21.2038 7.52738 21.1035 7.50425 20.9997 7.50232C20.9943 7.50425 20.9871 7.50425 20.9818 7.50425H3.0254C3.01823 7.50425 3.01107 7.50425 3.0057 7.50232C2.90362 7.50425 2.80334 7.52931 2.71201 7.56979C2.61172 7.61605 2.5186 7.68352 2.4416 7.76641C2.36459 7.8493 2.30191 7.9476 2.25893 8.05748C2.22133 8.15579 2.19805 8.26373 2.19626 8.37554C2.19805 8.38132 2.19805 8.38903 2.19805 8.39481V15.2205C2.19805 15.2282 2.19805 15.236 2.19626 15.2417C2.19805 15.3516 2.22133 15.4596 2.25893 15.5579C2.30191 15.6677 2.36459 15.7661 2.4416 15.8489C2.5186 15.9318 2.61172 15.9993 2.71201 16.0456C2.80334 16.088 2.90362 16.1111 3.00749 16.113C3.01286 16.1111 3.02002 16.1111 3.0254 16.1111H5.38209V14.33C5.38209 14.3223 5.38209 14.3146 5.38388 14.3068C5.38746 14.1469 5.41791 13.9926 5.47163 13.8539C5.52715 13.7074 5.60952 13.5743 5.70981 13.4625C5.71339 13.4568 5.71697 13.451 5.72234 13.4471C5.828 13.3334 5.95694 13.2409 6.09841 13.1773C6.22914 13.1194 6.37061 13.0867 6.52104 13.0828C6.52821 13.0789 6.53537 13.0789 6.54432 13.0789ZM18.6233 17.4007V20.749C18.6233 20.7567 18.6233 20.7644 18.6215 20.7721C18.6179 20.9321 18.5875 21.0863 18.5337 21.227C18.4746 21.3793 18.3887 21.5181 18.2812 21.6338C18.1756 21.7475 18.0466 21.84 17.9052 21.9036C17.7744 21.9614 17.633 21.9942 17.4843 21.9981C17.4772 22 17.47 22 17.4628 22H6.54432C6.53716 22 6.53 21.9981 6.52283 21.9981C6.3742 21.9942 6.23272 21.9614 6.10199 21.9036C5.96052 21.84 5.83337 21.7475 5.72593 21.6338C5.61848 21.5181 5.53252 21.3812 5.47342 21.227C5.4197 21.0863 5.38926 20.934 5.38567 20.774C5.38388 20.7663 5.38388 20.7586 5.38388 20.7509V17.4007H3.0254C3.01823 17.4007 3.01107 17.4007 3.00391 17.3988C2.73708 17.3949 2.48278 17.3371 2.25177 17.2349C2.00285 17.125 1.78079 16.9631 1.59455 16.7626C1.4083 16.5622 1.25788 16.3231 1.1558 16.0552C1.0591 15.8046 1.00537 15.5328 1.00358 15.2456C1 15.236 1 15.2282 1 15.2205V8.39481C1 8.3871 1 8.37939 1.00179 8.37168C1.00537 8.08447 1.0591 7.81267 1.15401 7.56208C1.25608 7.29414 1.40651 7.05511 1.59276 6.85464C1.779 6.65417 2.00106 6.49225 2.24998 6.38237C2.48278 6.27828 2.73529 6.22045 3.00212 6.21852C3.00928 6.21659 3.01644 6.2166 3.02361 6.2166H20.9764C20.9836 6.2166 20.9907 6.21659 20.9979 6.21852C21.2647 6.22238 21.519 6.28021 21.75 6.38237C21.9989 6.49225 22.221 6.65417 22.4072 6.85464C22.5935 7.05511 22.7439 7.29414 22.846 7.56208C22.9427 7.81267 22.9964 8.08447 22.9982 8.37168C23 8.37939 23 8.3871 23 8.39481V15.2205C23 15.2282 23 15.236 22.9982 15.2437C22.9946 15.5309 22.9409 15.8027 22.846 16.0533C22.7439 16.3212 22.5935 16.5602 22.4072 16.7607C22.221 16.9612 21.9989 17.1231 21.75 17.233C21.5172 17.3371 21.2647 17.3949 20.9979 17.3968C20.9907 17.3988 20.9836 17.3988 20.9764 17.3988H18.6233V17.4007ZM17.0223 3.05722L15.7687 1.72523V3.05722H17.0223ZM17.4252 14.3685H6.58014V20.7085H17.4252V14.3685Z" fill="#9E9E9E"/>
</svg>
