<svg width="22" height="22" viewBox="0 0 22 22" fill="none" xmlns="http://www.w3.org/2000/svg">
<path d="M11.0005 1.08293e-05C13.5463 -0.000716899 16.0137 0.88138 17.9821 2.49599C19.9505 4.11059 21.2981 6.3578 21.7953 8.85466C22.2925 11.3515 21.9085 13.9435 20.7088 16.189C19.509 18.4345 17.5678 20.1945 15.2158 21.169C12.8638 22.1436 10.2467 22.2725 7.81037 21.5336C5.37405 20.7948 3.26929 19.2341 1.85476 17.1173C0.440239 15.0006 -0.196521 12.4588 0.0529903 9.92518C0.302502 7.39155 1.42285 5.02283 3.22311 3.22267C4.24303 2.19935 5.45524 1.3878 6.78998 0.834732C8.12473 0.281661 9.55566 -0.00202022 11.0005 1.08293e-05ZM11.5483 13.5746L8.95228 12.3804C8.67772 12.6998 8.31411 12.93 7.90797 13.0415C7.50183 13.1531 7.07165 13.1409 6.67247 13.0065C6.2733 12.8722 5.92329 12.6218 5.66725 12.2874C5.4112 11.953 5.26077 11.5498 5.2352 11.1294C5.20962 10.709 5.31008 10.2905 5.5237 9.92751C5.73733 9.56453 6.0544 9.27355 6.43435 9.09181C6.8143 8.91007 7.23984 8.84584 7.6565 8.90734C8.07316 8.96884 8.462 9.15327 8.77324 9.43702L11.5304 8.28582C11.514 8.17617 11.5056 8.06547 11.5053 7.9546C11.5053 7.39599 11.7264 6.86007 12.1202 6.46389C12.514 6.06772 13.0486 5.84349 13.6072 5.84018C13.9477 5.83899 14.2834 5.91996 14.5859 6.07621C14.8883 6.23247 15.1487 6.45939 15.3447 6.73772C15.5408 7.01606 15.6668 7.33759 15.712 7.67502C15.7573 8.01245 15.7205 8.35582 15.6047 8.67598C15.4889 8.99615 15.2976 9.28365 15.047 9.5141C14.7964 9.74455 14.4939 9.91113 14.1652 9.99971C13.8365 10.0883 13.4912 10.0962 13.1588 10.0229C12.8263 9.94958 12.5165 9.79711 12.2555 9.57846L9.44642 10.7422C9.45596 10.8234 9.46134 10.9039 9.46253 10.9839L12.3826 12.3356C12.7686 12.0645 13.2344 11.9308 13.7054 11.956C14.1764 11.9812 14.6253 12.1638 14.9801 12.4746C15.3349 12.7853 15.5751 13.2062 15.6622 13.6698C15.7492 14.1334 15.6781 14.6127 15.4603 15.0311C15.2424 15.4494 14.8904 15.7824 14.4606 15.9768C14.0309 16.1712 13.5483 16.2157 13.0902 16.1031C12.6322 15.9905 12.2253 15.7273 11.9346 15.3558C11.644 14.9844 11.4865 14.526 11.4874 14.0544C11.488 13.8929 11.5066 13.7319 11.5429 13.5746H11.5483ZM17.5263 4.47592C16.0162 2.96696 14.0296 2.0283 11.9049 1.81988C9.7803 1.61145 7.64913 2.14616 5.87454 3.33289C4.09995 4.51961 2.79174 6.28494 2.17281 8.32808C1.55388 10.3712 1.66252 12.5658 2.48023 14.5378C3.29793 16.5098 4.77411 18.1373 6.65723 19.1429C8.54035 20.1486 10.7139 20.4702 12.8076 20.0529C14.9012 19.6357 16.7854 18.5054 18.1391 16.8546C19.4929 15.2039 20.2323 13.1348 20.2316 11C20.2327 9.78795 19.9943 8.58762 19.53 7.468C19.0658 6.34837 18.3848 5.33154 17.5263 4.47592Z" fill="#9E9E9E"/>
</svg>
