<svg width="32" height="32" viewBox="0 0 32 32" fill="none" xmlns="http://www.w3.org/2000/svg">
<path d="M4.06914 11.4101L15.846 0.121949C15.9302 0.0416373 16.0252 -0.000369382 16.1218 2.44716e-06C16.2184 0.000374276 16.3133 0.043112 16.3973 0.124071L28.1641 11.5109C28.4335 11.7709 28.5285 12.3534 28.3754 12.8107C28.3283 12.9513 28.261 13.0692 28.1798 13.1535L16.5373 25.1865C16.3504 25.3807 16.1223 25.3658 15.9473 25.1812L4.02476 13.0877C3.75914 12.8171 3.67226 12.2314 3.83164 11.7804C3.88756 11.6199 3.97019 11.4911 4.06914 11.4101ZM19.9279 30.1228C20.2273 30.2565 20.4066 30.7796 20.3279 31.289C20.2491 31.7972 19.941 32.1018 19.6416 31.9681L17.7498 31.1192C17.4498 30.9855 17.2704 30.4624 17.3498 29.953L17.8591 26.6806C17.9379 26.1712 18.2454 25.8677 18.5454 26.0014C18.8454 26.1351 19.0248 26.6572 18.946 27.1665L18.7704 28.2924L29.9816 17.312L29.366 17.0319C29.066 16.896 28.8879 16.3718 28.9679 15.8636C29.0479 15.3542 29.3566 15.0508 29.6566 15.1866L31.5823 16.0631C31.8823 16.1989 32.0604 16.7231 31.9804 17.2324L31.4741 20.4412C31.3941 20.9505 31.0854 21.253 30.7854 21.1171C30.4854 20.9813 30.3073 20.4571 30.3873 19.9478L30.5429 18.961L19.3916 29.8819L19.9279 30.1228ZM12.7348 31.967C12.4248 32.0105 12.1523 31.619 12.1273 31.0937C12.1023 30.5674 12.3323 30.1048 12.6423 30.0623L13.2091 29.9806L1.46476 18.0643L1.61226 19.0002C1.69226 19.5085 1.51414 20.0327 1.21414 20.1685C0.914137 20.3054 0.605387 20.0019 0.525387 19.4926L0.0191366 16.2848C-0.0608634 15.7755 0.117262 15.2513 0.417262 15.1155L2.34289 14.239C2.64289 14.1032 2.95164 14.4056 3.03164 14.9149C3.11164 15.4243 2.93351 15.9474 2.63351 16.0843L1.99101 16.3761L13.9629 28.5248L13.9085 27.4393C13.8835 26.914 14.1135 26.4514 14.4235 26.4089C14.7329 26.3654 15.0054 26.757 15.0304 27.2822L15.1991 30.6555C15.2248 31.1807 14.9941 31.6434 14.6848 31.6869L12.7348 31.967ZM16.1185 2.04681L5.42976 12.2919L16.2423 23.2595L26.781 12.3661L16.1185 2.04681Z" fill="#76BC1A"/>
</svg>
