<svg width="32" height="32" viewBox="0 0 32 32" fill="none" xmlns="http://www.w3.org/2000/svg">
<g clip-path="url(#clip0_89_133)">
<path d="M17.6927 30.6147V32H16.9271V30.6147H4.60938V31.997H3.85677V30.6147H3.42188C3.04855 30.6449 2.6783 30.5199 2.38021 30.2632C2.23252 30.1059 2.11686 29.9139 2.0413 29.7007C1.96574 29.4875 1.93209 29.2581 1.94271 29.0286V22.7934C1.62775 22.698 1.32681 22.5507 1.04948 22.3563C0.716901 22.1265 0.451482 21.7905 0.286461 21.3904C-0.249998 20.0465 0.026044 18.9182 0.656252 18.1414C0.953134 17.7941 1.31549 17.5275 1.71615 17.3616C2.11497 17.1921 2.54124 17.1216 2.96615 17.1549C3.28209 17.1813 3.59105 17.2734 3.87761 17.4266V13.1438C3.87761 11.3716 4.11198 10.4501 4.71094 9.93613C5.3099 9.42219 6.14844 9.41037 7.42969 9.41037H13.0208V1.07513C13.0215 0.79074 13.1213 0.518172 13.2983 0.316798C13.4754 0.115424 13.7154 0.00155727 13.9661 0L31.0521 0C31.3033 0.000779494 31.544 0.114303 31.7216 0.31576C31.8992 0.517218 31.9993 0.79023 32 1.07513V28.8396H31.2786V30.3016H25.1198V28.8425H19.6016V29.0138C19.6127 29.2434 19.5793 29.473 19.5037 29.6863C19.4281 29.8996 19.3122 30.0915 19.1641 30.2485C18.8651 30.5032 18.4955 30.6279 18.1224 30.6H17.6927V30.6147ZM25.112 13.8438C25.1074 13.7788 25.1148 13.7135 25.1336 13.6518C25.1524 13.5902 25.1823 13.5337 25.2213 13.4858C25.2603 13.4379 25.3076 13.3997 25.3603 13.3735C25.413 13.3474 25.4699 13.3339 25.5273 13.3339C25.5848 13.3339 25.6417 13.3474 25.6944 13.3735C25.747 13.3997 25.7944 13.4379 25.8334 13.4858C25.8724 13.5337 25.9023 13.5902 25.9211 13.6518C25.9399 13.7135 25.9473 13.7788 25.9427 13.8438V16.316C25.9344 16.4345 25.8871 16.5452 25.8101 16.6258C25.7331 16.7065 25.6322 16.7513 25.5273 16.7513C25.4225 16.7513 25.3216 16.7065 25.2446 16.6258C25.1676 16.5452 25.1203 16.4345 25.112 16.316V13.8438ZM22.9167 0.942219V27.9003H31.1615V1.07513C31.1618 1.05757 31.159 1.0401 31.1533 1.0238C31.1475 1.00749 31.1389 0.992673 31.1279 0.980249C31.117 0.967826 31.1039 0.95805 31.0895 0.951513C31.0752 0.944977 31.0598 0.941815 31.0443 0.942219H22.9167ZM22.0938 27.9003V0.942219H13.9661C13.9358 0.942395 13.9068 0.956203 13.8854 0.980617C13.8737 0.992482 13.8644 1.00706 13.8581 1.02337C13.8518 1.03968 13.8487 1.05733 13.849 1.07513V9.41037H14.1406C15.5339 9.41037 16.3828 9.4724 16.9401 10.0366C17.4974 10.6007 17.6615 11.5725 17.6615 13.3683V17.6038C18.0447 17.4022 18.463 17.3012 18.8854 17.3085C19.291 17.3116 19.6919 17.406 20.0651 17.5861C20.4353 17.7619 20.7656 18.0306 21.0313 18.3718C21.6042 19.1132 21.8125 20.1765 21.2552 21.4111C21.0793 21.794 20.8169 22.1171 20.4948 22.3474C20.2174 22.5446 19.9167 22.6958 19.6016 22.7964V27.9003H22.0938ZM4.63282 18.0853C4.88371 18.4155 5.06851 18.8034 5.17448 19.2224C5.23743 19.4561 5.27845 19.6967 5.29688 19.9402C5.31774 20.2075 5.31774 20.4763 5.29688 20.7436V21.8837H16.25V20.7259C16.232 20.4654 16.232 20.2037 16.25 19.9431C16.2612 19.6886 16.3068 19.4376 16.3854 19.1988C16.5061 18.8473 16.6826 18.524 16.9063 18.2448V13.3683C16.9063 11.8353 16.7995 11.0378 16.4375 10.6716C16.0755 10.3053 15.3646 10.264 14.1406 10.264H7.42969C6.29948 10.264 5.5599 10.264 5.16406 10.6184C4.76823 10.9729 4.64323 11.6758 4.64323 13.1438V18.0853H4.63282ZM5.29688 22.7432V24.1787H16.25V22.7432H5.29688ZM4.04948 18.6376C4.00555 18.6045 3.96828 18.5612 3.94011 18.5106C3.65028 18.2214 3.28376 18.0499 2.89844 18.0233C2.58153 17.9971 2.26341 18.0496 1.96615 18.1769C1.6709 18.297 1.40371 18.492 1.1849 18.7469C0.744794 19.2727 0.562502 20.0702 0.953127 21.039C1.06094 21.2857 1.23027 21.4911 1.44011 21.6297C1.73294 21.8273 2.05361 21.9662 2.38802 22.0402C2.47091 22.0622 2.54482 22.1153 2.59776 22.1909C2.6507 22.2665 2.67958 22.3602 2.67969 22.4567V29.0079C2.66904 29.1169 2.67885 29.2272 2.70848 29.3316C2.7381 29.4359 2.78687 29.532 2.85156 29.6134C3.01523 29.7332 3.20989 29.7863 3.40365 29.7641H4.52604V20.6757C4.54554 20.4537 4.54554 20.2301 4.52604 20.0081C4.51246 19.8229 4.48191 19.6398 4.4349 19.4617C4.35506 19.1521 4.21539 18.8665 4.02604 18.6258L4.04948 18.6376ZM17.0052 22.182C17.0295 22.2685 17.0295 22.3614 17.0052 22.4478V24.5154C17.0079 24.5468 17.0079 24.5785 17.0052 24.6099C17.0078 24.6424 17.0078 24.675 17.0052 24.7074V29.767H18.125C18.3198 29.7865 18.5147 29.7325 18.6797 29.6134C18.7418 29.5331 18.789 29.4393 18.8185 29.3379C18.848 29.2364 18.8593 29.1292 18.8516 29.0227V22.4626C18.8513 22.3598 18.8839 22.2604 18.9432 22.1828C19.0026 22.1052 19.0847 22.0545 19.1745 22.0402C19.4968 21.9638 19.8052 21.8249 20.0859 21.6297C20.2931 21.4796 20.4612 21.2695 20.5729 21.0212C20.9661 20.1351 20.8333 19.4233 20.4557 18.9271C20.2626 18.6844 20.0242 18.4937 19.7578 18.3688C19.4771 18.232 19.1753 18.1598 18.8698 18.1562C18.4862 18.1422 18.1083 18.2633 17.7879 18.5029C17.4675 18.7425 17.2205 19.0888 17.0807 19.4942C17.0291 19.6536 16.9984 19.8208 16.9896 19.9904C16.9771 20.2188 16.9815 20.448 17.0026 20.6757V20.714V22.1702L17.0052 22.182ZM5.28646 29.7641H16.25V25.0382H5.29688V29.7641H5.28646Z" fill="#76BD22"/>
</g>
<defs>
<clipPath id="clip0_89_133">
<rect width="32" height="32" fill="#76BD22"/>
</clipPath>
</defs>
</svg>
