<svg width="32" height="32" viewBox="0 0 32 32" fill="none" xmlns="http://www.w3.org/2000/svg">
<g clip-path="url(#clip0_111_105)">
<path d="M16 14.6681C18.2133 14.6681 20 12.8814 20 10.6681C20 8.45474 18.2133 6.66808 16 6.66808C13.7867 6.66808 12 8.45474 12 10.6681C12 12.8814 13.7867 14.6681 16 14.6681ZM16 9.33474C16.7333 9.33474 17.3333 9.93474 17.3333 10.6681C17.3333 11.4014 16.7333 12.0014 16 12.0014C15.2667 12.0014 14.6667 11.4014 14.6667 10.6681C14.6667 9.93474 15.2667 9.33474 16 9.33474Z" fill="#76BC1A"/>
<path d="M16 16C13.5467 16 11.2533 16.6667 9.29333 17.8267C8.48 18.2933 8 19.1867 8 20.12V22.6667H24V20.12C24 19.1867 23.52 18.3067 22.7067 17.8267C20.7467 16.6667 18.4533 16 16 16ZM10.8533 20C12.4267 19.1333 14.2 18.6667 16 18.6667C17.8 18.6667 19.5733 19.1333 21.1333 20H10.8533Z" fill="#76BC1A"/>
<path d="M28.3061 10.8667L30.7728 9.84C29.1461 5.96 26.0395 2.84 22.1595 1.22667L21.1328 3.69334C24.3595 5.05334 26.9461 7.64 28.3061 10.8667Z" fill="#76BC1A"/>
<path d="M10.8666 3.69334L9.8399 1.22667C5.9599 2.85334 2.85323 5.96 1.22656 9.84L3.69323 10.8667C5.05323 7.64 7.6399 5.05334 10.8666 3.69334Z" fill="#76BC1A"/>
<path d="M3.69323 21.1329L1.22656 22.1596C2.85323 26.0396 5.9599 29.1596 9.8399 30.7729L10.8666 28.3063C7.6399 26.9463 5.05323 24.3596 3.69323 21.1329Z" fill="#76BC1A"/>
<path d="M21.1328 28.3063L22.1595 30.7729C26.0395 29.1463 29.1595 26.0396 30.7728 22.1596L28.3061 21.1329C26.9461 24.3596 24.3595 26.9463 21.1328 28.3063Z" fill="#76BC1A"/>
</g>
<defs>
<clipPath id="clip0_111_105">
<rect width="32" height="32" fill="white"/>
</clipPath>
</defs>
</svg>
